# xmcd
#
# Track frame offsets:
#	150
#	1173
#	21942
#	38235
#	63706
#	82040
#	101579
#	119758
#	171677
#	194548
#	216841
#	234197
#	251195
#	270466
#	286077
#	306405
#
# Disc length: 4354 seconds
#
# Revision: 1
# Processed by: cddbd v1.4PL0 Copyright (c) Steve Scherf et al.
# Submitted via: EasyCDDAExtractor 5.0.6
#
DISCID=ee110010
DTITLE=Ginuwine - The Senior
DYEAR=2003
DGENRE=R&B
TTITLE0=Mike Tyson
TTITLE1=Get Ready (feat. Snoop Dogg and The Rook)
TTITLE2=Chedda Brings (feat. Jose Cenquentez)
TTITLE3=Hell Yeah (feat. Baby)
TTITLE4=In Those Jeans
TTITLE5=Stingy
TTITLE6=Love You More
TTITLE7=Bedda To Have Loved
TTITLE8=Locked Down
TTITLE9=On My Way
TTITLE10=Sex (feat. Sole)
TTITLE11=Bedda Man
TTITLE12=Our First Born
TTITLE13=Big Plans (feat. Method Man)
TTITLE14=Hell Yeah (Remix) (feat. R Kelly, Baby and Clipse)
TTITLE15=Tigger and The Gizzle
EXTD=
EXTT0=
EXTT1=
EXTT2=
EXTT3=
EXTT4=
EXTT5=
EXTT6=
EXTT7=
EXTT8=
EXTT9=
EXTT10=
EXTT11=
EXTT12=
EXTT13=
EXTT14=
EXTT15=
PLAYORDER=
